{
   "stats" : {
      "total_found" : "1",
      "words" : {
         "5bbbeea6265e3c934ad7d657d5c5d5bc49dd6c87" : {
            "docs" : "1",
            "hits" : "1"
         }
      },
      "time" : "0.000"
   },
   "status" : "ok",
   "files" : [
      {
         "files_num_audio" : "0",
         "height" : "544",
         "ss_height" : "128",
         "url_dl" : "http://prehc3s9n64ge714l8vrh9dcppvnuge7k7k9j5g.f-ddl.link/d/p/Tel-Teq6yP_83TN1K7pG20QBbN8sFnDu6IOdLlbv7i1_f0HHoeiZlg/Iron%20Man%202%20%282010%29",
         "video_fps" : "24",
         "av_info" : "",
         "ss_width" : "300",
         "snippets" : "Iron.Man.II.x264.720p.mkv, Torrent downloaded from Demonoid.com.txt, English, Duration: 01:59:18.06, start: 0.000000, bitrate: 818 kb/s     Stream #0:0(eng): Video: h264 (High), yuv420p, 1280x544 [SAR 1:1 DAR 40:17], 23.98 fps, 23.98 tbr, 1k tbn, 47.95 tbc ... ",
         "ss_urls_tn_all" : "https://sfdg8jo3ijckim7htaf4jl3cqhvnuge7k7k9j5g.f-ddl.link/ss/2368602/tn_all",
         "av_time" : "2012-07-07 16:35:36",
         "video_quality" : "SD",
         "status" : "",
         "ss_urls_tn" : [
            "https://sfdg8jo3ijckim7htaf4jl3cqhvnuge7k7k9j5g.f-ddl.link/ss/2368602/tn_1",
            "https://sfdg8jo3ijckim7htaf4jl3cqhvnuge7k7k9j5g.f-ddl.link/ss/2368602/tn_2",
            "https://sfdg8jo3ijckim7htaf4jl3cqhvnuge7k7k9j5g.f-ddl.link/ss/2368602/tn_3",
            "https://sfdg8jo3ijckim7htaf4jl3cqhvnuge7k7k9j5g.f-ddl.link/ss/2368602/tn_4",
            "https://sfdg8jo3ijckim7htaf4jl3cqhvnuge7k7k9j5g.f-ddl.link/ss/2368602/tn_5",
            "https://sfdg8jo3ijckim7htaf4jl3cqhvnuge7k7k9j5g.f-ddl.link/ss/2368602/tn_6",
            "https://sfdg8jo3ijckim7htaf4jl3cqhvnuge7k7k9j5g.f-ddl.link/ss/2368602/tn_7",
            "https://sfdg8jo3ijckim7htaf4jl3cqhvnuge7k7k9j5g.f-ddl.link/ss/2368602/tn_8",
            "https://sfdg8jo3ijckim7htaf4jl3cqhvnuge7k7k9j5g.f-ddl.link/ss/2368602/tn_9"
         ],
         "duration" : "7158",
         "bitrate" : "0",
         "video_info" : "Duration: 01:59:18.06, start: 0.000000, bitrate: 818 kb/s\n    Stream #0:0(eng): Video: h264 (High), yuv420p, 1280x544 [SAR 1:1 DAR 40:17], 23.98 fps, 23.98 tbr, 1k tbn, 47.95 tbc\n    Metadata:\n      title           : 300mbunited.com | rapidpremium.net\n    Stream #0:1: Audio: aac (HE-AAC), 48000 Hz, stereo, fltp (default)\n    Metadata:\n      title           : 300mbunited.com | rapidpremium.net\n    Stream #0:2: Subtitle: subrip (default)\n    Metadata:\n      title           : 300mbunited.com | rapidpremium.net",
         "files_num_large" : "0",
         "files_num_video" : "1",
         "media_proc_status" : "done",
         "is_linked" : "0",
         "files_num_audio_player" : "0",
         "audio_channels" : "2.0",
         "id_labels" : [],
         "id" : "12796845107546941436",
         "ss_height_tn_all" : 64,
         "av_result" : "error",
         "is_ready" : "1",
         "ctime" : "2010-09-09 00:03:45",
         "files_num_video_player" : "0",
         "media_proc_done" : "1",
         "name" : "Iron Man 2 (2010)",
         "ss_urls" : [
            "https://sfdg8jo3ijckim7htaf4jl3cqhvnuge7k7k9j5g.f-ddl.link/ss/2368602/1",
            "https://sfdg8jo3ijckim7htaf4jl3cqhvnuge7k7k9j5g.f-ddl.link/ss/2368602/2",
            "https://sfdg8jo3ijckim7htaf4jl3cqhvnuge7k7k9j5g.f-ddl.link/ss/2368602/3",
            "https://sfdg8jo3ijckim7htaf4jl3cqhvnuge7k7k9j5g.f-ddl.link/ss/2368602/4",
            "https://sfdg8jo3ijckim7htaf4jl3cqhvnuge7k7k9j5g.f-ddl.link/ss/2368602/5",
            "https://sfdg8jo3ijckim7htaf4jl3cqhvnuge7k7k9j5g.f-ddl.link/ss/2368602/6",
            "https://sfdg8jo3ijckim7htaf4jl3cqhvnuge7k7k9j5g.f-ddl.link/ss/2368602/7",
            "https://sfdg8jo3ijckim7htaf4jl3cqhvnuge7k7k9j5g.f-ddl.link/ss/2368602/8",
            "https://sfdg8jo3ijckim7htaf4jl3cqhvnuge7k7k9j5g.f-ddl.link/ss/2368602/9"
         ],
         "files_num_image" : "0",
         "width" : "1280",
         "info_hash" : "5BBBEEA6265E3C934AD7D657D5C5D5BC49DD6C87",
         "url_pls" : "http://prehc3s9n64ge714l8vrh9dcppvnuge7k7k9j5g.f-ddl.link/pls/D4fITJjiNOMqB_QuNF1pGEQBbN8sFnDu6IOdLlbv7i1_f0HHoeiZlg/Iron%20Man%202%20%282010%29.xspf",
         "ss_num" : "9",
         "url_page" : "/df/f5aab62cb47a4be0",
         "rel" : "1727",
         "type" : "video",
         "size" : "732520800"
      }
   ]
}
                                                                                                                                                                                                                                                                                                                                                                                                                                                                                                                                                                                                                                                                                                                                                                                                                                                                                                                                                                                                                                        